<svg viewBox="0 0 700 912" xmlns="http://www.w3.org/2000/svg" role="img" font-family="-apple-system, BlinkMacSystemFont, 'Segoe UI', Roboto, Helvetica, Arial, sans-serif">
<title>Victoria deployment topology — inside vs outside the container</title>
<desc>Three zones — cloud/external at top, the Victoria container in the middle, and the macOS host at the bottom — with every boundary-crossing connection labeled by protocol and port.</desc>
<defs>
  <marker id="ah" viewBox="0 0 10 10" refX="8" refY="5" markerWidth="7" markerHeight="7" orient="auto-start-reverse">
    <path d="M2 1L8 5L2 9" fill="none" stroke="context-stroke" stroke-width="1.6" stroke-linecap="round" stroke-linejoin="round"/>
  </marker>
</defs>

<!-- ===== CLOUD ZONE ===== -->
<rect x="20" y="24" width="660" height="180" rx="20" fill="#6E2A1A"/>
<text x="44" y="56" fill="#F0997B" font-size="17" font-weight="600">Cloud / external — leaves your Mac (mostly opt-in)</text>
<g>
  <rect x="40" y="66" width="145" height="46" rx="10" fill="#3A3A37" stroke="#57574F" stroke-width="1"/><text x="112.5" y="87" fill="#ECEBE7" font-size="14" font-weight="600" text-anchor="middle">Anthropic API</text><text x="112.5" y="104" fill="#B2B0A6" font-size="11.5" text-anchor="middle">escalation + API</text>
  <rect x="197" y="66" width="145" height="46" rx="10" fill="#3A3A37" stroke="#57574F" stroke-width="1"/><text x="269.5" y="87" fill="#ECEBE7" font-size="14" font-weight="600" text-anchor="middle">ElevenLabs</text><text x="269.5" y="104" fill="#B2B0A6" font-size="11.5" text-anchor="middle">cloud TTS · opt</text>
  <rect x="354" y="66" width="145" height="46" rx="10" fill="#3A3A37" stroke="#57574F" stroke-width="1"/><text x="426.5" y="87" fill="#ECEBE7" font-size="14" font-weight="600" text-anchor="middle">DuckDuckGo</text><text x="426.5" y="104" fill="#B2B0A6" font-size="11.5" text-anchor="middle">web search</text>
  <rect x="511" y="66" width="145" height="46" rx="10" fill="#3A3A37" stroke="#57574F" stroke-width="1"/><text x="583.5" y="87" fill="#ECEBE7" font-size="14" font-weight="600" text-anchor="middle">wttr.in</text><text x="583.5" y="104" fill="#B2B0A6" font-size="11.5" text-anchor="middle">weather</text>
  <rect x="40" y="126" width="145" height="46" rx="10" fill="#3A3A37" stroke="#57574F" stroke-width="1"/><text x="112.5" y="147" fill="#ECEBE7" font-size="14" font-weight="600" text-anchor="middle">GitHub</text><text x="112.5" y="164" fill="#B2B0A6" font-size="11.5" text-anchor="middle">skill import</text>
  <rect x="197" y="126" width="145" height="46" rx="10" fill="#3A3A37" stroke="#57574F" stroke-width="1"/><text x="269.5" y="147" fill="#ECEBE7" font-size="14" font-weight="600" text-anchor="middle">Telegram</text><text x="269.5" y="164" fill="#B2B0A6" font-size="11.5" text-anchor="middle">bot · opt</text>
  <rect x="354" y="126" width="145" height="46" rx="10" fill="#3A3A37" stroke="#57574F" stroke-width="1"/><text x="426.5" y="147" fill="#ECEBE7" font-size="14" font-weight="600" text-anchor="middle">Remote MCP</text><text x="426.5" y="164" fill="#B2B0A6" font-size="11.5" text-anchor="middle">SSE · opt</text>
  <rect x="511" y="126" width="145" height="46" rx="10" fill="#3A3A37" stroke="#57574F" stroke-width="1"/><text x="583.5" y="147" fill="#ECEBE7" font-size="14" font-weight="600" text-anchor="middle">Dashboard feeds</text><text x="583.5" y="164" fill="#B2B0A6" font-size="11.5" text-anchor="middle">Yahoo · CNN · Fox</text>
</g>

<!-- ===== CONTAINER ZONE ===== -->
<rect x="20" y="296" width="660" height="306" rx="20" fill="#0F5E48"/>
<text x="44" y="328" fill="#5DCAA5" font-size="17" font-weight="600">Container — victoria image · services: api (:8000) + telegram</text>
<g>
  <rect x="40" y="340" width="145" height="46" rx="10" fill="#3A3A37" stroke="#57574F" stroke-width="1"/><text x="112.5" y="361" fill="#ECEBE7" font-size="14" font-weight="600" text-anchor="middle">Conversation Mgr</text><text x="112.5" y="378" fill="#B2B0A6" font-size="11.5" text-anchor="middle">hub · memory inject</text>
  <rect x="197" y="340" width="145" height="46" rx="10" fill="#3A3A37" stroke="#57574F" stroke-width="1"/><text x="269.5" y="361" fill="#ECEBE7" font-size="14" font-weight="600" text-anchor="middle">LLM Router</text><text x="269.5" y="378" fill="#B2B0A6" font-size="11.5" text-anchor="middle">local ↔ Claude</text>
  <rect x="354" y="340" width="145" height="46" rx="10" fill="#3A3A37" stroke="#57574F" stroke-width="1"/><text x="426.5" y="361" fill="#ECEBE7" font-size="14" font-weight="600" text-anchor="middle">Voice</text><text x="426.5" y="378" fill="#B2B0A6" font-size="11.5" text-anchor="middle">Piper · Whisper</text>
  <rect x="511" y="340" width="145" height="46" rx="10" fill="#3A3A37" stroke="#57574F" stroke-width="1"/><text x="583.5" y="361" fill="#ECEBE7" font-size="14" font-weight="600" text-anchor="middle">Claude Code CLI</text><text x="583.5" y="378" fill="#B2B0A6" font-size="11.5" text-anchor="middle">bundled</text>
  <rect x="40" y="400" width="145" height="46" rx="10" fill="#3A3A37" stroke="#57574F" stroke-width="1"/><text x="112.5" y="421" fill="#ECEBE7" font-size="14" font-weight="600" text-anchor="middle">Memory</text><text x="112.5" y="438" fill="#B2B0A6" font-size="11.5" text-anchor="middle">SQLite · ChromaDB</text>
  <rect x="197" y="400" width="145" height="46" rx="10" fill="#3A3A37" stroke="#57574F" stroke-width="1"/><text x="269.5" y="421" fill="#ECEBE7" font-size="14" font-weight="600" text-anchor="middle">Skills</text><text x="269.5" y="438" fill="#B2B0A6" font-size="11.5" text-anchor="middle">instructions</text>
  <rect x="354" y="400" width="145" height="46" rx="10" fill="#3A3A37" stroke="#57574F" stroke-width="1"/><text x="426.5" y="421" fill="#ECEBE7" font-size="14" font-weight="600" text-anchor="middle">Vault</text><text x="426.5" y="438" fill="#B2B0A6" font-size="11.5" text-anchor="middle">Fernet · masked</text>
  <rect x="511" y="400" width="145" height="46" rx="10" fill="#3A3A37" stroke="#57574F" stroke-width="1"/><text x="583.5" y="421" fill="#ECEBE7" font-size="14" font-weight="600" text-anchor="middle">MCP client</text><text x="583.5" y="438" fill="#B2B0A6" font-size="11.5" text-anchor="middle">stdio + SSE</text>
  <rect x="40" y="460" width="145" height="46" rx="10" fill="#3A3A37" stroke="#57574F" stroke-width="1"/><text x="112.5" y="481" fill="#ECEBE7" font-size="14" font-weight="600" text-anchor="middle">Tools</text><text x="112.5" y="498" fill="#B2B0A6" font-size="11.5" text-anchor="middle">search·wx·calc</text>
  <rect x="197" y="460" width="145" height="46" rx="10" fill="#3A3A37" stroke="#57574F" stroke-width="1"/><text x="269.5" y="481" fill="#ECEBE7" font-size="14" font-weight="600" text-anchor="middle">MCP stdio</text><text x="269.5" y="498" fill="#B2B0A6" font-size="11.5" text-anchor="middle">npx · in-container</text>
  <rect x="354" y="460" width="145" height="46" rx="10" fill="#3A3A37" stroke="#57574F" stroke-width="1"/><text x="426.5" y="481" fill="#ECEBE7" font-size="14" font-weight="600" text-anchor="middle">Web HUD</text><text x="426.5" y="498" fill="#B2B0A6" font-size="11.5" text-anchor="middle">static assets</text>
  <rect x="511" y="460" width="145" height="46" rx="10" fill="#3A3A37" stroke="#57574F" stroke-width="1"/><text x="583.5" y="481" fill="#ECEBE7" font-size="14" font-weight="600" text-anchor="middle">FastAPI</text><text x="583.5" y="498" fill="#B2B0A6" font-size="11.5" text-anchor="middle">uvicorn :8000</text>
  <rect x="40" y="520" width="145" height="46" rx="10" fill="#3A3A37" stroke="#57574F" stroke-width="1"/><text x="112.5" y="541" fill="#ECEBE7" font-size="14" font-weight="600" text-anchor="middle">Knowledge base</text><text x="112.5" y="558" fill="#B2B0A6" font-size="11.5" text-anchor="middle">Obsidian vaults</text>
</g>

<!-- ===== HOST ZONE ===== -->
<rect x="20" y="694" width="660" height="184" rx="20" fill="#123E72"/>
<text x="44" y="726" fill="#85B7EB" font-size="17" font-weight="600">Host — macOS (outside the container)</text>
<g>
  <rect x="40" y="736" width="145" height="46" rx="10" fill="#3A3A37" stroke="#57574F" stroke-width="1"/><text x="112.5" y="757" fill="#ECEBE7" font-size="14" font-weight="600" text-anchor="middle">Browser</text><text x="112.5" y="774" fill="#B2B0A6" font-size="11.5" text-anchor="middle">the HUD tab</text>
  <rect x="197" y="736" width="145" height="46" rx="10" fill="#3A3A37" stroke="#57574F" stroke-width="1"/><text x="269.5" y="757" fill="#ECEBE7" font-size="13.5" font-weight="600" text-anchor="middle">Docker Model Runner</text><text x="269.5" y="774" fill="#B2B0A6" font-size="11.5" text-anchor="middle">:12434 · local LLM</text>
  <rect x="354" y="736" width="145" height="46" rx="10" fill="#3A3A37" stroke="#57574F" stroke-width="1"/><text x="426.5" y="757" fill="#ECEBE7" font-size="14" font-weight="600" text-anchor="middle">Ollama</text><text x="426.5" y="774" fill="#B2B0A6" font-size="11.5" text-anchor="middle">:11434 · opt</text>
  <rect x="511" y="736" width="145" height="46" rx="10" fill="#3A3A37" stroke="#57574F" stroke-width="1"/><text x="583.5" y="757" fill="#ECEBE7" font-size="14" font-weight="600" text-anchor="middle">macOS Keychain</text><text x="583.5" y="774" fill="#B2B0A6" font-size="11.5" text-anchor="middle">vault master key</text>
  <rect x="40" y="798" width="616" height="44" rx="10" fill="#3A3A37" stroke="#57574F" stroke-width="1"/><text x="348" y="818" fill="#ECEBE7" font-size="14" font-weight="600" text-anchor="middle">Bind-mounted volumes (persist on host, survive rebuilds)</text><text x="348" y="835" fill="#B2B0A6" font-size="11.5" text-anchor="middle">./data (SQLite · ChromaDB · vault.enc) · ./models (Piper) · ./skills · Obsidian vault(s)</text>
</g>

<!-- ===== EDGES ===== -->
<line x1="300" y1="296" x2="300" y2="204" stroke="#8E8E88" stroke-width="1.6" marker-start="url(#ah)" marker-end="url(#ah)"/>
<text x="318" y="248" fill="#8E8E88" font-size="13">outbound HTTPS</text>
<text x="318" y="265" fill="#8E8E88" font-size="13">(opt · keyed)</text>

<line x1="112" y1="736" x2="112" y2="602" stroke="#8E8E88" stroke-width="1.6" marker-start="url(#ah)" marker-end="url(#ah)"/>
<text x="120" y="646" fill="#8E8E88" font-size="13">HTTPS :8000</text>

<line x1="269" y1="736" x2="269" y2="602" stroke="#8E8E88" stroke-width="1.6" marker-start="url(#ah)" marker-end="url(#ah)"/>
<text x="277" y="630" fill="#8E8E88" font-size="13">local LLM</text>

<line x1="426" y1="736" x2="426" y2="602" stroke="#8E8E88" stroke-width="1.6" stroke-dasharray="5 4" marker-start="url(#ah)" marker-end="url(#ah)"/>
<text x="434" y="646" fill="#8E8E88" font-size="13">opt</text>

<line x1="583" y1="736" x2="583" y2="602" stroke="#8E8E88" stroke-width="1.6" marker-end="url(#ah)"/>
<text x="575" y="630" fill="#8E8E88" font-size="13" text-anchor="end">vault key (env)</text>

<line x1="348" y1="798" x2="348" y2="602" stroke="#8E8E88" stroke-width="1.6" marker-start="url(#ah)" marker-end="url(#ah)"/>
<text x="356" y="670" fill="#8E8E88" font-size="13">volumes</text>

<!-- ===== LEGEND ===== -->
<rect x="44" y="890" width="14" height="14" rx="3" fill="#6E2A1A"/><text x="64" y="901" fill="#6E6E68" font-size="12">cloud (off your Mac)</text>
<rect x="232" y="890" width="14" height="14" rx="3" fill="#0F5E48"/><text x="252" y="901" fill="#6E6E68" font-size="12">container</text>
<rect x="366" y="890" width="14" height="14" rx="3" fill="#123E72"/><text x="386" y="901" fill="#6E6E68" font-size="12">host (your Mac)</text>
<text x="512" y="901" fill="#6E6E68" font-size="12">– – – = optional</text>
</svg>
